<?xml version="1.0" standalone="no"?>
<!DOCTYPE svg PUBLIC "-//W3C//DTD SVG 20010904//EN"
 "http://www.w3.org/TR/2001/REC-SVG-20010904/DTD/svg10.dtd">
<svg version="1.0" xmlns="http://www.w3.org/2000/svg"
 width="700.000000pt" height="700.000000pt" viewBox="0 0 700.000000 700.000000"
 preserveAspectRatio="xMidYMid meet">
<metadata>
Created by potrace 1.11, written by Peter Selinger 2001-2013
</metadata>
<g transform="translate(0.000000,700.000000) scale(0.100000,-0.100000)"
fill="#000000" stroke="none">
<path d="M3285 6830 c-1180 -78 -2228 -769 -2759 -1820 -242 -478 -358 -962
-359 -1500 -1 -309 26 -544 93 -811 145 -580 433 -1096 855 -1528 554 -568
1240 -900 2045 -992 156 -18 546 -15 715 5 887 107 1666 536 2222 1223 395
487 641 1074 719 1718 20 167 23 557 5 715 -74 661 -315 1245 -724 1755 -103
129 -373 399 -502 502 -497 398 -1093 647 -1715 717 -177 20 -432 26 -595 16z
m480 -310 c196 -18 574 -92 610 -120 6 -4 48 -20 95 -35 47 -16 104 -36 128
-46 l42 -18 0 -66 c0 -49 4 -67 15 -71 8 -4 15 -19 15 -35 0 -32 4 -31 -175
-49 -291 -29 -622 -107 -867 -203 l-86 -34 -134 66 c-253 126 -553 201 -880
217 l-128 7 0 28 c0 18 6 30 19 34 20 6 31 43 31 110 l0 42 133 41 c207 66
483 121 677 135 107 8 404 6 505 -3z m1195 -386 c98 -54 106 -59 235 -148 55
-38 105 -74 110 -81 6 -7 39 -36 75 -64 177 -143 395 -387 554 -623 78 -114
101 -159 78 -144 -5 3 -27 9 -50 15 l-42 9 21 -29 20 -28 -33 11 c-18 7 -82
26 -142 42 l-109 31 -91 127 c-248 345 -486 603 -702 760 -93 67 -98 93 -9 43
75 -42 85 -40 20 5 -39 27 -44 35 -39 58 9 43 15 62 18 62 2 0 41 -21 86 -46z
m-2332 -149 c282 -30 510 -90 706 -186 56 -27 110 -56 120 -64 22 -17 45 -137
101 -540 58 -418 77 -598 62 -611 -6 -6 -93 -81 -192 -165 -256 -219 -476
-421 -658 -608 -86 -88 -162 -161 -168 -161 -6 0 -70 18 -142 39 -261 78 -638
172 -882 219 l-90 17 -13 40 c-74 224 -130 562 -157 939 l-14 209 66 86 c282
363 555 601 858 747 101 49 116 53 183 54 40 0 139 -7 220 -15z m-1462 -908
c1 -1 9 -96 18 -211 18 -233 37 -387 67 -556 21 -114 78 -350 98 -402 9 -25 4
-37 -55 -125 -186 -278 -311 -568 -365 -844 l-23 -117 -45 -6 c-24 -3 -74 -6
-111 -6 -59 0 -68 2 -73 20 -3 13 -14 20 -29 20 -54 0 -65 10 -77 63 -41 179
-69 387 -76 552 -12 291 37 671 122 944 19 62 36 122 38 131 13 68 197 457
236 499 18 20 29 22 91 20 59 -2 72 1 80 16 9 14 18 16 56 11 25 -3 47 -7 48
-9z m4621 -123 c166 -50 286 -107 304 -145 8 -16 36 -44 63 -61 44 -29 53 -42
82 -113 47 -117 114 -333 124 -401 5 -32 18 -104 30 -159 11 -55 23 -134 25
-175 3 -41 9 -131 14 -199 10 -131 -8 -500 -28 -571 -6 -19 -20 -87 -31 -150
-29 -156 -58 -269 -79 -306 -10 -16 -28 -60 -40 -96 -20 -61 -83 -158 -102
-158 -4 0 -84 34 -176 76 -92 41 -258 114 -368 161 -110 47 -202 87 -204 89
-2 2 -8 47 -12 101 -29 321 -101 671 -220 1074 l-61 205 199 300 c109 164 234
359 278 431 44 73 81 133 82 133 1 0 55 -16 120 -36z m-1887 -500 c269 -65
685 -203 951 -316 l124 -53 43 -130 c116 -345 242 -964 242 -1183 0 -52 -3
-59 -52 -116 -183 -213 -397 -420 -617 -596 -135 -108 -294 -220 -314 -220
-29 0 -271 51 -412 86 -300 75 -587 177 -837 299 l-37 18 -45 186 c-108 446
-236 1049 -236 1107 0 48 405 443 819 798 l185 158 40 -6 c23 -4 88 -18 146
-32z m-2920 -1877 c151 -310 430 -639 736 -871 l52 -38 11 -106 c13 -113 37
-239 71 -371 25 -98 25 -95 -4 -76 -19 13 -25 13 -28 3 -3 -9 -15 -5 -41 15
-20 15 -45 31 -56 35 -29 10 -242 193 -346 297 -136 135 -214 223 -279 316
-33 46 -71 100 -86 119 -50 65 -184 304 -231 412 -25 59 -51 113 -57 120 -17
22 -63 161 -58 175 3 7 20 13 37 13 28 0 31 2 25 25 -6 24 -5 25 46 26 29 1
67 5 83 9 67 17 66 17 125 -103z m2090 -518 c169 -76 295 -124 480 -183 156
-49 458 -125 606 -151 l92 -17 35 -121 c43 -146 128 -475 157 -606 l21 -94
-38 -40 c-21 -21 -73 -65 -115 -97 -68 -51 -87 -60 -169 -80 -255 -59 -635
-86 -884 -61 -66 7 -163 16 -215 21 -187 17 -573 131 -777 230 -68 32 -123 63
-123 67 0 5 -14 17 -30 27 -17 9 -41 39 -55 66 -57 113 -121 360 -143 553 -10
92 -29 76 178 160 228 93 426 183 630 286 107 54 200 99 205 100 6 0 71 -26
145 -60z"/>
</g>
</svg>
